<svg width="14" height="19" viewBox="0 0 14 19" fill="none" xmlns="http://www.w3.org/2000/svg">
<path d="M6.62375 10.9288C5.43375 11.1737 4.725 11.9437 4.725 13.0375C4.725 14.21 5.69625 15.155 6.90375 15.155C8.6975 15.155 10.15 13.7025 10.15 11.9087C10.15 10.9725 10.0188 10.0538 9.7475 9.17875C9.05625 10.115 7.8225 10.6838 6.62375 10.9288ZM8.3125 0C8.3125 0 8.96 2.31875 8.96 4.2C8.96 6.0025 7.77875 7.46375 5.97625 7.46375C4.165 7.46375 2.8 6.0025 2.8 4.2L2.82625 3.885C1.05875 5.985 0 8.70625 0 11.6637C0 15.5312 3.1325 18.6637 7 18.6637C10.8675 18.6637 14 15.5312 14 11.6637C14 6.9475 11.7338 2.73875 8.3125 0ZM7 16.9137C4.10375 16.9137 1.75 14.56 1.75 11.6637C1.75 10.325 2.0125 9.00375 2.5025 7.7875C3.38625 8.67125 4.61125 9.21375 5.97625 9.21375C8.30375 9.21375 10.1325 7.6125 10.5963 5.3375C11.6725 7.2625 12.25 9.42375 12.25 11.6637C12.25 14.56 9.89625 16.9137 7 16.9137Z" fill="#FF5151"/>
</svg>
