<svg width="15" height="15" viewBox="0 0 15 15" fill="none" xmlns="http://www.w3.org/2000/svg">
<mask id="mask0_143_2016" style="mask-type:alpha" maskUnits="userSpaceOnUse" x="0" y="0" width="15" height="15">
<rect width="15" height="15" fill="#53BEBE"/>
</mask>
<g mask="url(#mask0_143_2016)">
<path d="M6.875 10.625H4.375C3.51042 10.625 2.77354 10.3202 2.16438 9.71062C1.55479 9.10146 1.25 8.36458 1.25 7.5C1.25 6.63542 1.55479 5.89833 2.16438 5.28875C2.77354 4.67958 3.51042 4.375 4.375 4.375H6.875V5.625H4.375C3.85417 5.625 3.41146 5.80729 3.04688 6.17188C2.68229 6.53646 2.5 6.97917 2.5 7.5C2.5 8.02083 2.68229 8.46354 3.04688 8.82812C3.41146 9.19271 3.85417 9.375 4.375 9.375H6.875V10.625ZM5 8.125V6.875H10V8.125H5ZM8.125 10.625V9.375H10.625C11.1458 9.375 11.5885 9.19271 11.9531 8.82812C12.3177 8.46354 12.5 8.02083 12.5 7.5C12.5 6.97917 12.3177 6.53646 11.9531 6.17188C11.5885 5.80729 11.1458 5.625 10.625 5.625H8.125V4.375H10.625C11.4896 4.375 12.2267 4.67958 12.8363 5.28875C13.4454 5.89833 13.75 6.63542 13.75 7.5C13.75 8.36458 13.4454 9.10146 12.8363 9.71062C12.2267 10.3202 11.4896 10.625 10.625 10.625H8.125Z" fill="#53BEBE"/>
</g>
</svg>
