<svg width="14" height="15" viewBox="0 0 14 15" fill="none" xmlns="http://www.w3.org/2000/svg">
<path d="M13.2 10.5994L11.7378 7.89994V5.08929C11.7378 2.28305 9.45478 0 6.64854 0C3.8423 0 1.55925 2.28305 1.55925 5.08929V7.89994L0.0970195 10.5994C0.0307087 10.7218 -0.00266583 10.8593 0.000166352 10.9985C0.00299853 11.1377 0.0419402 11.2737 0.113176 11.3933C0.184411 11.5129 0.285496 11.612 0.406527 11.6808C0.527558 11.7496 0.664382 11.7857 0.803593 11.7857H3.71436C3.70639 11.874 3.70208 11.9632 3.70208 12.0536C3.70208 12.835 4.0125 13.5844 4.56506 14.137C5.11763 14.6896 5.86706 15 6.6485 15C7.42994 15 8.17938 14.6896 8.73194 14.137C9.28451 13.5844 9.59493 12.835 9.59493 12.0536C9.59493 11.9632 9.59061 11.874 9.58264 11.7857H12.4934C12.6326 11.7857 12.7694 11.7495 12.8904 11.6807C13.0114 11.6119 13.1125 11.5129 13.1837 11.3933C13.255 11.2737 13.2939 11.1377 13.2967 10.9985C13.2996 10.8593 13.2662 10.7218 13.1999 10.5994H13.2ZM8.52354 12.0536C8.52375 12.3112 8.47085 12.5662 8.36813 12.8025C8.26542 13.0388 8.1151 13.2514 7.92656 13.4271C7.73802 13.6027 7.51531 13.7376 7.27231 13.8233C7.02932 13.909 6.77127 13.9437 6.51426 13.9253C6.25725 13.9068 6.0068 13.8356 5.77855 13.716C5.55029 13.5965 5.34913 13.4312 5.18761 13.2304C5.0261 13.0296 4.9077 12.7977 4.8398 12.5492C4.77191 12.3006 4.75597 12.0407 4.79299 11.7857H8.50405C8.51692 11.8744 8.52344 11.9639 8.52354 12.0536ZM1.25329 10.7143L2.63068 8.17148V5.08929C2.63068 4.02368 3.05399 3.00173 3.80748 2.24823C4.56098 1.49474 5.58294 1.07143 6.64854 1.07143C7.71414 1.07143 8.7361 1.49474 9.48959 2.24823C10.2431 3.00173 10.6664 4.02368 10.6664 5.08929V8.17148L12.0437 10.7143H1.25329Z" fill="white"/>
</svg>
