<svg width="14" height="15" viewBox="0 0 14 15" fill="none" xmlns="http://www.w3.org/2000/svg">
<path d="M6.74982 4.52295C6.23194 4.52295 5.72568 4.67652 5.29508 4.96424C4.86447 5.25196 4.52885 5.66091 4.33067 6.13938C4.13248 6.61784 4.08063 7.14433 4.18166 7.65226C4.2827 8.1602 4.53208 8.62676 4.89828 8.99296C5.26448 9.35916 5.73105 9.60855 6.23898 9.70958C6.74692 9.81062 7.27341 9.75876 7.75187 9.56058C8.23033 9.36239 8.63928 9.02677 8.927 8.59617C9.21473 8.16556 9.3683 7.65931 9.3683 7.14142C9.36751 6.4472 9.09138 5.78164 8.60049 5.29075C8.10961 4.79986 7.44404 4.52374 6.74982 4.52295ZM6.74982 8.80772C6.42026 8.80772 6.0981 8.71 5.82408 8.5269C5.55005 8.34381 5.33648 8.08357 5.21036 7.77909C5.08424 7.47461 5.05124 7.13957 5.11554 6.81634C5.17983 6.49311 5.33853 6.19621 5.57157 5.96317C5.80461 5.73013 6.10151 5.57143 6.42474 5.50714C6.74797 5.44284 7.08301 5.47584 7.38749 5.60196C7.69197 5.72808 7.95221 5.94165 8.1353 6.21568C8.3184 6.4897 8.41612 6.81186 8.41612 7.14142C8.41563 7.5832 8.23991 8.00674 7.92753 8.31913C7.61514 8.63151 7.1916 8.80723 6.74982 8.80772Z" fill="white"/>
<path d="M13.2827 9.11464L12.3374 8.33645C12.5049 7.54849 12.5049 6.7341 12.3374 5.94614L13.2827 5.16795C13.3917 5.07862 13.4654 4.95339 13.4905 4.81469C13.5156 4.676 13.4905 4.53289 13.4197 4.411L12.4494 2.73033C12.3792 2.60804 12.2678 2.51473 12.1351 2.46713C12.0024 2.41953 11.8571 2.42075 11.7252 2.47056L10.5778 2.90044C9.98009 2.3604 9.27494 1.95284 8.50862 1.70451L8.3073 0.497304C8.28451 0.358178 8.21291 0.231717 8.10534 0.140587C7.99777 0.049458 7.86126 -0.000381368 7.72028 2.19754e-06H5.77958C5.6386 -0.000376487 5.5021 0.0494609 5.39454 0.140583C5.28697 0.231705 5.21537 0.358156 5.19256 0.497274L4.99136 1.70451C4.22504 1.95284 3.51989 2.36039 2.92217 2.90044L1.77465 2.4705C1.64277 2.42072 1.49748 2.41953 1.3648 2.46713C1.23212 2.51474 1.12073 2.60803 1.05058 2.7303L0.080231 4.41109C0.00946122 4.53299 -0.0156008 4.6761 0.00953378 4.81479C0.0346683 4.95348 0.108357 5.0787 0.217403 5.16801L1.16264 5.94614C0.99506 6.7341 0.99506 7.54849 1.16264 8.33645L0.217314 9.11464C0.108286 9.20397 0.0346166 9.3292 0.00949888 9.46789C-0.0156188 9.60659 0.0094552 9.7497 0.080231 9.87159L1.05061 11.5523C1.12077 11.6745 1.23218 11.7678 1.36488 11.8154C1.49757 11.863 1.64289 11.8618 1.77477 11.812L2.9222 11.3822C3.51992 11.9222 4.22507 12.3298 4.99139 12.5781L5.19259 13.7853C5.21539 13.9244 5.28698 14.0509 5.39454 14.142C5.50211 14.2331 5.6386 14.283 5.77958 14.2826H7.72028C7.86126 14.283 7.99776 14.2331 8.10533 14.142C8.2129 14.0509 8.2845 13.9244 8.3073 13.7853L8.50853 12.5781C9.27485 12.3297 9.98 11.9222 10.5777 11.3822L11.7252 11.8121C11.8571 11.8619 12.0024 11.8631 12.1351 11.8155C12.2677 11.7678 12.3791 11.6746 12.4493 11.5523L13.4196 9.8715C13.4904 9.74964 13.5155 9.60657 13.4904 9.46789C13.4653 9.32921 13.3917 9.20399 13.2827 9.11464ZM11.776 10.8143L10.3445 10.278L10.1277 10.4962C9.53133 11.0973 8.78535 11.5284 7.96675 11.7451L7.66919 11.8235L7.41791 13.3304H6.08219L5.831 11.8235L5.53344 11.7451C4.71484 11.5284 3.96886 11.0973 3.37246 10.4962L3.15569 10.278L1.72395 10.8143L1.05621 9.65747L2.23538 8.68673L2.15504 8.38998C1.9341 7.57218 1.9341 6.71041 2.15504 5.89261L2.23538 5.59589L1.05621 4.62515L1.7241 3.46832L3.1556 4.00463L3.37237 3.78641C3.96877 3.18527 4.71475 2.75414 5.53335 2.53748L5.83091 2.45905L6.08207 0.952175H7.41791L7.6691 2.45905L7.96666 2.53748C8.78526 2.75414 9.53124 3.18527 10.1276 3.78641L10.3444 4.00463L11.7759 3.46832L12.4438 4.62512L11.2647 5.59589L11.345 5.89261C11.5659 6.71041 11.5659 7.57218 11.345 8.38998L11.2647 8.68673L12.4438 9.65744L11.776 10.8143Z" fill="white"/>
</svg>
