<svg width="18" height="16" viewBox="0 0 18 16" fill="none" xmlns="http://www.w3.org/2000/svg">
<path d="M7.93651 5.512L8.68254 8H10.9206L9.11905 9.296L9.85714 11.704L7.93651 10.232L6.01587 11.704L6.75397 9.296L4.95238 8H7.19048L7.93651 5.512ZM6.01587 6.4H0L4.89683 9.928L3.03968 16L7.93651 12.248L12.8413 16L10.9762 9.928L15.873 6.4H9.85714L7.93651 0L6.01587 6.4ZM16.1587 16L14.6825 11.192L18 8.8H15.2698L12.8254 10.56L13.9841 14.336L16.1587 16ZM12.6984 4.8L11.254 0L10.4286 2.76L11.0397 4.8H12.6984Z" fill="#FFAA47"/>
</svg>
